{
   "accessors" : [
      {
         "bufferView" : 0,
         "byteOffset" : 0,
         "componentType" : 5123,
         "count" : 88890,
         "max" : [ 16142 ],
         "min" : [ 0 ],
         "name" : "buffer-0-group-0-mesh-0-indices",
         "type" : "SCALAR"
      },
      {
         "bufferView" : 1,
         "byteOffset" : 0,
         "componentType" : 5126,
         "count" : 16143,
         "max" : [ 4.068109035491943, 0.5038930177688599, 2.796133041381836 ],
         "min" : [ -3.033452987670898, -2.211708068847656, -2.79588508605957 ],
         "name" : "buffer-0-group-0-mesh-0-position",
         "type" : "VEC3"
      },
      {
         "bufferView" : 1,
         "byteOffset" : 193716,
         "componentType" : 5126,
         "count" : 16143,
         "max" : [ 0.9999973773956299, 0.99998939037323, 1 ],
         "min" : [ -0.9998844861984253, -1, -1 ],
         "name" : "buffer-0-group-0-mesh-0-normal",
         "type" : "VEC3"
      },
      {
         "bufferView" : 2,
         "byteOffset" : 0,
         "componentType" : 5126,
         "count" : 16143,
         "max" : [ 0, 0 ],
         "min" : [ 0, 0 ],
         "name" : "buffer-0-group-0-mesh-0-texcoord",
         "type" : "VEC2"
      },
      {
         "bufferView" : 0,
         "byteOffset" : 177780,
         "componentType" : 5123,
         "count" : 87540,
         "max" : [ 21691 ],
         "min" : [ 0 ],
         "name" : "buffer-0-group-1-mesh-0-indices",
         "type" : "SCALAR"
      },
      {
         "bufferView" : 1,
         "byteOffset" : 387432,
         "componentType" : 5126,
         "count" : 21692,
         "max" : [ 1.856317043304443, 8.516249656677246, 6.760402202606201 ],
         "min" : [ -6.386785984039307, -0.9398639798164368, -6.283024787902832 ],
         "name" : "buffer-0-group-1-mesh-0-position",
         "type" : "VEC3"
      },
      {
         "bufferView" : 1,
         "byteOffset" : 647736,
         "componentType" : 5126,
         "count" : 21692,
         "max" : [ 0.9998996257781982, 0.9999635219573975, 0.9998957514762878 ],
         "min" : [ -0.9999791979789734, -0.9999998807907104, -0.9998957514762878 ],
         "name" : "buffer-0-group-1-mesh-0-normal",
         "type" : "VEC3"
      },
      {
         "bufferView" : 2,
         "byteOffset" : 129144,
         "componentType" : 5126,
         "count" : 21692,
         "max" : [ 0.9995200037956238, -0.0004790000093635172 ],
         "min" : [ 0.0004799999878741801, -0.999521017074585 ],
         "name" : "buffer-0-group-1-mesh-0-texcoord",
         "type" : "VEC2"
      }
   ],
   "asset" : {
      "extras" : {
         "GOOGLE_processor_version" : 294144208
      },
      "generator" : "Obj2GltfConverter",
      "version" : "2.0"
   },
   "bufferViews" : [
      {
         "buffer" : 0,
         "byteLength" : 352860,
         "byteOffset" : 0,
         "name" : "buffer-0-bufferview-ushort",
         "target" : 34963
      },
      {
         "buffer" : 0,
         "byteLength" : 908040,
         "byteOffset" : 352860,
         "byteStride" : 12,
         "name" : "buffer-0-bufferview-vec3",
         "target" : 34962
      },
      {
         "buffer" : 0,
         "byteLength" : 302680,
         "byteOffset" : 1260904,
         "byteStride" : 8,
         "name" : "buffer-0-bufferview-vec2",
         "target" : 34962
      }
   ],
   "buffers" : [
      {
         "byteLength" : 1563584,
         "name" : "buffer-0",
         "uri" : "Butterfly.bin"
      }
   ],
   "cameras" : [
      {
         "perspective" : {
            "yfov" : 0.7853981633974483,
            "znear" : 0.1000000014901161
         },
         "type" : "perspective"
      }
   ],
   "extensions" : {
      "KHR_lights_punctual" : {
         "lights" : [
            {
               "color" : [ 1, 0.9333333333333333, 0.8666666666666667 ],
               "intensity" : 0.25,
               "name" : "headLight",
               "type" : "directional"
            },
            {
               "color" : [ 1, 0.9333333333333333, 0.8666666666666667 ],
               "intensity" : 0.324999988079071,
               "name" : "keyLight",
               "type" : "directional"
            }
         ]
      }
   },
   "extensionsUsed" : [ "GOOGLE_backgrounds", "GOOGLE_camera_settings", "KHR_lights_punctual" ],
   "extras" : {
      "GOOGLE_initial_camera_motion" : {
         "motionPath" : "FULL_ROTATION"
      },
      "GOOGLE_lighting_rig" : {
         "disableShadows" : false
      }
   },
   "images" : [
      {
         "mimeType" : "image/png",
         "name" : "Material_NONE-diffuse-image",
         "uri" : "TextureAtlas.png"
      },
      {
         "mimeType" : "image/png",
         "name" : "Material-diffuse-image",
         "uri" : "TextureAtlas.png"
      }
   ],
   "materials" : [
      {
         "alphaMode" : "OPAQUE",
         "doubleSided" : true,
         "name" : "Material_NONE",
         "pbrMetallicRoughness" : {
            "baseColorFactor" : [ 0.64, 0.64, 0.64, 1 ],
            "baseColorTexture" : {
               "index" : 0,
               "texCoord" : 0
            },
            "metallicFactor" : 0,
            "roughnessFactor" : 0.8352947823984904
         }
      },
      {
         "alphaMode" : "OPAQUE",
         "doubleSided" : true,
         "name" : "Material",
         "pbrMetallicRoughness" : {
            "baseColorFactor" : [ 0.64, 0.64, 0.64, 1 ],
            "baseColorTexture" : {
               "index" : 1,
               "texCoord" : 0
            },
            "metallicFactor" : 0,
            "roughnessFactor" : 0.8352947823984904
         }
      }
   ],
   "meshes" : [
      {
         "name" : "buffer-0-mesh-0",
         "primitives" : [
            {
               "attributes" : {
                  "NORMAL" : 2,
                  "POSITION" : 1,
                  "TEXCOORD_0" : 3
               },
               "indices" : 0,
               "material" : 0,
               "mode" : 4
            },
            {
               "attributes" : {
                  "NORMAL" : 6,
                  "POSITION" : 5,
                  "TEXCOORD_0" : 7
               },
               "indices" : 4,
               "material" : 1,
               "mode" : 4
            }
         ]
      }
   ],
   "nodes" : [
      {
         "mesh" : 0,
         "name" : "node-0"
      },
      {
         "children" : [ 2 ]
      },
      {
         "children" : [ 3 ],
         "extras" : {
            "isTransformNode" : 1
         },
         "translation" : [ -2.297883379399274, 2.837259934480436, 0.2246069935578417 ]
      },
      {
         "children" : [ 0 ],
         "translation" : [ 2.297883379399274, -2.837259934480436, -0.2246069935578417 ]
      },
      {
         "camera" : 0,
         "children" : [ 5 ],
         "rotation" : [
            -0.393422645220277,
            -0.5865523474453769,
            -0.3910263172552708,
            0.5901469182737283
         ],
         "translation" : [ -10.48769646995749, 22.49125574048594, 0.2746918751513447 ]
      },
      {
         "extensions" : {
            "KHR_lights_punctual" : {
               "light" : 0
            }
         },
         "extras" : {
            "isHeadLight" : 1
         },
         "name" : "headLightNode",
         "translation" : [ -10.98400185559386, 5.492000927796928, 5.492000927796928 ]
      },
      {
         "extensions" : {
            "KHR_lights_punctual" : {
               "light" : 1
            }
         },
         "extras" : {
            "isKeyLight" : 1
         },
         "name" : "keyLightNode",
         "rotation" : [ -0.7505326882858236, -0.3752663441429118, 0, 0.5439447166468927 ],
         "scale" : [ 0, 0, 11.0938418741498 ],
         "translation" : [ -11.81557699125106, 23.18213718726251, -11.05460485651439 ]
      }
   ],
   "samplers" : [
      {
         "name" : "Material_NONE-diffuse-sampler",
         "wrapS" : 10497,
         "wrapT" : 10497
      },
      {
         "name" : "Material-diffuse-sampler",
         "wrapS" : 10497,
         "wrapT" : 10497
      }
   ],
   "scene" : 0,
   "scenes" : [
      {
         "extensions" : {
            "GOOGLE_backgrounds" : {
               "color" : [ 0.9803921568627451, 0.9803921568627451, 0.9803921568627451 ]
            },
            "GOOGLE_camera_settings" : {
               "pivot" : [ -2.298641893036503, 2.838279273289409, 0.224659700840029 ]
            }
         },
         "extras" : {
            "GOOGLE_camera_index" : {
               "cameraIndex" : 0,
               "nodeIndex" : 4
            },
            "GOOGLE_geometry_data" : {
               "stats" : {
                  "centroid" : [ -0.7217351171012673, 0.994453438962915, 0.03923701763540386 ],
                  "radius" : 10.98400185559386,
                  "stdev" : 4.008628962269861
               },
               "visualCenterPoint" : [ -2.297883379399274, 2.837259934480436, 0.2246069935578417 ]
            },
            "GOOGLE_hemi_light" : {
               "groundColor" : [ 0.9803921568627451, 0.9803921568627451, 0.9803921568627451 ]
            }
         },
         "name" : "scene-0",
         "nodes" : [ 1, 4, 6 ]
      }
   ],
   "textures" : [
      {
         "name" : "Material_NONE-diffuse-texture",
         "sampler" : 0,
         "source" : 0
      },
      {
         "name" : "Material-diffuse-texture",
         "sampler" : 1,
         "source" : 1
      }
   ]
}
